<mxfile host="app.diagrams.net" modified="2023-08-30T11:47:36.671Z" agent="Mozilla/5.0 (Macintosh; Intel Mac OS X 10_15_7) AppleWebKit/537.36 (KHTML, like Gecko) Chrome/116.0.0.0 Safari/537.36" etag="0ltZ1t2inj3Dj3RXYoCg" version="21.6.1" type="github">
  <diagram name="第 1 页" id="zaQBWJbc8xldhKIn6hAd">
    <mxGraphModel dx="2074" dy="1077" grid="1" gridSize="10" guides="1" tooltips="1" connect="1" arrows="1" fold="1" page="1" pageScale="1" pageWidth="827" pageHeight="1169" math="0" shadow="0">
      <root>
        <mxCell id="0" />
        <mxCell id="1" parent="0" />
        <mxCell id="0_aPOfdnvoy64Q0PcRbv-8" value="" style="ellipse;whiteSpace=wrap;html=1;fillColor=#d5e8d4;strokeColor=#82b366;" vertex="1" parent="1">
          <mxGeometry x="230" y="190" width="360" height="160" as="geometry" />
        </mxCell>
        <mxCell id="0_aPOfdnvoy64Q0PcRbv-9" value="" style="ellipse;whiteSpace=wrap;html=1;fillColor=#ffe6cc;strokeColor=#d79b00;" vertex="1" parent="1">
          <mxGeometry x="310" y="230" width="120" height="80" as="geometry" />
        </mxCell>
        <mxCell id="0_aPOfdnvoy64Q0PcRbv-10" value="" style="ellipse;whiteSpace=wrap;html=1;fillColor=#fff2cc;strokeColor=#d6b656;" vertex="1" parent="1">
          <mxGeometry x="390" y="230" width="120" height="80" as="geometry" />
        </mxCell>
        <mxCell id="0_aPOfdnvoy64Q0PcRbv-19" value="IdentifierNames" style="text;html=1;strokeColor=none;fillColor=none;align=center;verticalAlign=middle;whiteSpace=wrap;rounded=0;strokeWidth=7;fontStyle=1;fontSize=17;" vertex="1" parent="1">
          <mxGeometry x="370" y="190" width="70" height="40" as="geometry" />
        </mxCell>
        <mxCell id="0_aPOfdnvoy64Q0PcRbv-20" value="Reserved Words" style="text;html=1;strokeColor=none;fillColor=none;align=center;verticalAlign=middle;whiteSpace=wrap;rounded=0;fontSize=17;" vertex="1" parent="1">
          <mxGeometry x="420" y="257.5" width="60" height="30" as="geometry" />
        </mxCell>
        <mxCell id="0_aPOfdnvoy64Q0PcRbv-21" value="Keywords" style="text;html=1;strokeColor=none;fillColor=none;align=center;verticalAlign=middle;whiteSpace=wrap;rounded=0;spacing=3;fontSize=16;" vertex="1" parent="1">
          <mxGeometry x="320" y="257.5" width="60" height="25" as="geometry" />
        </mxCell>
        <mxCell id="0_aPOfdnvoy64Q0PcRbv-22" value="IdentifierNames" style="text;html=1;strokeColor=none;fillColor=none;align=center;verticalAlign=middle;whiteSpace=wrap;rounded=0;fontSize=17;" vertex="1" parent="1">
          <mxGeometry x="260" y="370" width="60" height="30" as="geometry" />
        </mxCell>
        <mxCell id="0_aPOfdnvoy64Q0PcRbv-23" value="=" style="text;html=1;strokeColor=none;fillColor=none;align=center;verticalAlign=middle;whiteSpace=wrap;rounded=0;fontSize=17;" vertex="1" parent="1">
          <mxGeometry x="490" y="370" width="60" height="30" as="geometry" />
        </mxCell>
        <mxCell id="0_aPOfdnvoy64Q0PcRbv-24" value="Reserved Words" style="text;html=1;strokeColor=none;fillColor=none;align=center;verticalAlign=middle;whiteSpace=wrap;rounded=0;fontSize=17;" vertex="1" parent="1">
          <mxGeometry x="360" y="370" width="160" height="30" as="geometry" />
        </mxCell>
        <mxCell id="0_aPOfdnvoy64Q0PcRbv-25" value="-" style="text;html=1;strokeColor=none;fillColor=none;align=center;verticalAlign=middle;whiteSpace=wrap;rounded=0;fontSize=25;" vertex="1" parent="1">
          <mxGeometry x="330" y="370" width="70" height="30" as="geometry" />
        </mxCell>
        <mxCell id="0_aPOfdnvoy64Q0PcRbv-27" value="Identifer" style="text;html=1;strokeColor=none;fillColor=none;align=center;verticalAlign=middle;whiteSpace=wrap;rounded=0;fontSize=17;" vertex="1" parent="1">
          <mxGeometry x="550" y="370" width="60" height="30" as="geometry" />
        </mxCell>
      </root>
    </mxGraphModel>
  </diagram>
</mxfile>
